<svg width="32" height="32" viewBox="0 0 32 32" fill="none" xmlns="http://www.w3.org/2000/svg">
  <!-- Background with racing theme gradient -->
  <defs>
    <linearGradient id="bgGradient" x1="0%" y1="0%" x2="100%" y2="100%">
      <stop offset="0%" style="stop-color:#DC2626;stop-opacity:1" />
      <stop offset="100%" style="stop-color:#B91C1C;stop-opacity:1" />
    </linearGradient>
    <linearGradient id="carGradient" x1="0%" y1="0%" x2="100%" y2="100%">
      <stop offset="0%" style="stop-color:#FFFFFF;stop-opacity:1" />
      <stop offset="100%" style="stop-color:#E5E5E5;stop-opacity:1" />
    </linearGradient>
  </defs>
  
  <!-- Background -->
  <rect width="32" height="32" rx="6" fill="url(#bgGradient)"/>
  
  <!-- Sports car silhouette -->
  <!-- Car roof/windshield -->
  <path d="M7 14 L9 10 L23 10 L25 14 Z" fill="url(#carGradient)" opacity="0.9"/>
  
  <!-- Car main body -->
  <path d="M4 16 L6 14 L26 14 L28 16 L28 20 L26 22 L24 22 C24 23.1 23.1 24 22 24 C20.9 24 20 23.1 20 22 L12 22 C12 23.1 11.1 24 10 24 C8.9 24 8 23.1 8 22 L6 22 L4 20 Z" fill="url(#carGradient)"/>
  
  <!-- Wheels -->
  <circle cx="10" cy="21" r="2.5" fill="#262626"/>
  <circle cx="22" cy="21" r="2.5" fill="#262626"/>
  <circle cx="10" cy="21" r="1.5" fill="#525252"/>
  <circle cx="22" cy="21" r="1.5" fill="#525252"/>
  
  <!-- Racing stripes -->
  <rect x="15" y="10" width="1" height="12" fill="#DC2626" opacity="0.7"/>
  <rect x="16.5" y="10" width="1" height="12" fill="#DC2626" opacity="0.7"/>
  
  <!-- Headlight -->
  <ellipse cx="26" cy="17" rx="1" ry="0.8" fill="#FFF" opacity="0.8"/>
  
  <!-- Window detail -->
  <path d="M9 12 L23 12 L24 13 L8 13 Z" fill="#1F2937" opacity="0.6"/>
</svg>
